<svg id="Layer_1" data-name="Layer 1" xmlns="http://www.w3.org/2000/svg" viewBox="0 0 371.01 107"><defs><style>.cls-1{fill:#0a0a0a;}.cls-2{fill:#02a4fd;}.cls-2,.cls-3{stroke:#000;}.cls-2,.cls-3,.cls-4{stroke-miterlimit:10;}.cls-3{fill:#facb50;}.cls-4{fill:none;stroke:#fff;}.cls-5{font-size:48px;fill:#fff;font-family:RobotoCondensed-Regular, Roboto Condensed;}.cls-6{letter-spacing:-0.02em;}.cls-7{letter-spacing:-0.04em;}.cls-8{letter-spacing:-0.02em;}</style></defs><title>kodsport - Liggande färg - svart bakgrund</title><rect class="cls-1" width="371.67" height="107"/><polygon class="cls-2" points="34.37 50.33 51.69 40.33 34.37 30.33 34.37 50.33"/><polygon class="cls-2" points="51.69 40.33 51.69 20.33 34.37 30.33 51.69 40.33"/><polygon class="cls-2" points="34.37 10.33 17.05 20.33 34.37 30.33 34.37 10.33"/><polygon class="cls-2" points="34.37 30.33 17.05 40.33 34.37 50.33 34.37 30.33"/><polygon class="cls-2" points="17.05 20.33 17.05 40.33 34.37 30.33 17.05 20.33"/><polygon class="cls-2" points="69.01 10.33 51.69 20.33 69.01 30.33 69.01 10.33"/><polygon class="cls-2" points="51.69 20.33 51.69 40.33 69.01 30.33 51.69 20.33"/><polygon class="cls-2" points="51.69 80.33 69.01 70.33 51.69 60.33 51.69 80.33"/><polygon class="cls-2" points="51.69 60.33 34.37 70.33 51.69 80.33 51.69 60.33"/><polygon class="cls-2" points="34.37 50.33 34.37 70.33 51.69 60.33 34.37 50.33"/><polygon class="cls-2" points="34.37 70.33 17.05 80.33 34.37 90.33 34.37 70.33"/><polygon class="cls-2" points="17.05 80.33 17.05 100.33 34.37 90.33 17.05 80.33"/><polygon class="cls-2" points="17.05 80.33 34.37 70.33 17.05 60.33 17.05 80.33"/><polygon class="cls-2" points="34.37 50.33 17.05 40.33 17.05 60.33 34.37 50.33"/><polygon class="cls-2" points="34.37 70.33 34.37 50.33 17.05 60.33 34.37 70.33"/><polygon class="cls-2" points="69.01 70.33 51.69 80.33 69.01 90.33 69.01 70.33"/><polygon class="cls-2" points="51.69 80.33 51.69 100.33 69.01 90.33 51.69 80.33"/><polygon class="cls-3" points="103.65 50.33 120.97 40.33 103.65 30.33 103.65 50.33"/><polygon class="cls-3" points="120.97 20.33 103.65 10.33 103.65 30.33 120.97 20.33"/><polygon class="cls-3" points="120.97 40.33 120.97 20.33 103.65 30.33 120.97 40.33"/><polygon class="cls-3" points="103.65 10.33 86.33 20.33 103.65 30.33 103.65 10.33"/><polygon class="cls-3" points="86.33 20.33 86.33 40.33 103.65 30.33 86.33 20.33"/><polygon class="cls-3" points="120.97 60.33 103.65 70.33 120.97 80.33 120.97 60.33"/><polygon class="cls-3" points="103.65 50.33 103.65 70.33 120.97 60.33 103.65 50.33"/><polygon class="cls-3" points="120.97 80.33 103.65 70.33 103.65 90.33 120.97 80.33"/><polygon class="cls-3" points="103.65 70.33 86.33 80.33 103.65 90.33 103.65 70.33"/><polygon class="cls-3" points="86.33 80.33 86.33 100.33 103.65 90.33 86.33 80.33"/><polygon class="cls-3" points="103.65 50.33 86.33 40.33 86.33 60.33 103.65 50.33"/><polygon class="cls-3" points="103.65 70.33 103.65 50.33 86.33 60.33 103.65 70.33"/><polygon class="cls-3" points="86.33 40.33 69.01 50.33 86.33 60.33 86.33 40.33"/><polygon class="cls-3" points="86.33 60.33 69.01 70.33 86.33 80.33 86.33 60.33"/><polygon class="cls-3" points="69.01 50.33 86.33 40.33 69.01 30.33 69.01 50.33"/><polygon class="cls-3" points="86.33 40.33 86.33 20.33 69.01 30.33 86.33 40.33"/><polygon class="cls-3" points="86.33 80.33 69.01 70.33 69.01 90.33 86.33 80.33"/><polygon class="cls-3" points="86.33 100.33 86.33 80.33 69.01 90.33 86.33 100.33"/><line class="cls-4" x1="137.35" y1="7.17" x2="137.35" y2="103.5"/><text class="cls-5" transform="translate(151.47 50.5)"><tspan class="cls-6">K</tspan><tspan x="25.43" y="0">ODSPO</tspan><tspan class="cls-7" x="161.95" y="0">R</tspan><tspan class="cls-8" x="185.55" y="0">T</tspan><tspan x="0" y="43">SVERIGE</tspan></text></svg>