<svg id="Layer_1" data-name="Layer 1" xmlns="http://www.w3.org/2000/svg" viewBox="0 0 371.67 114.67"><defs><style>.cls-1,.cls-2{fill:#020202;}.cls-1{stroke:#333;}.cls-1,.cls-6,.cls-7{stroke-miterlimit:10;}.cls-2{font-size:48px;font-family:RobotoCondensed-Regular, Roboto Condensed;}.cls-3{letter-spacing:-0.02em;}.cls-4{letter-spacing:-0.04em;}.cls-5{letter-spacing:-0.02em;}.cls-6{fill:#02a4fd;}.cls-6,.cls-7{stroke:#fff;}.cls-7{fill:#facb50;}</style></defs><title>kodsport - Liggande färg - vit bakgrund</title><line class="cls-1" x1="137.35" y1="9.45" x2="137.35" y2="105.78"/><text class="cls-2" transform="translate(151.47 52.78)"><tspan class="cls-3">K</tspan><tspan x="25.43" y="0">ODSPO</tspan><tspan class="cls-4" x="161.95" y="0">R</tspan><tspan class="cls-5" x="185.55" y="0">T</tspan><tspan x="0" y="43">SVERIGE</tspan></text><polygon class="cls-6" points="34.37 52.33 51.69 42.33 34.37 32.33 34.37 52.33"/><polygon class="cls-6" points="51.69 42.33 51.69 22.33 34.37 32.33 51.69 42.33"/><polygon class="cls-6" points="34.37 12.33 17.05 22.33 34.37 32.33 34.37 12.33"/><polygon class="cls-6" points="34.37 32.33 17.05 42.33 34.37 52.33 34.37 32.33"/><polygon class="cls-6" points="17.05 22.33 17.05 42.33 34.37 32.33 17.05 22.33"/><polygon class="cls-6" points="69.01 12.33 51.69 22.33 69.01 32.33 69.01 12.33"/><polygon class="cls-6" points="51.69 22.33 51.69 42.33 69.01 32.33 51.69 22.33"/><polygon class="cls-6" points="51.69 82.33 69.01 72.33 51.69 62.33 51.69 82.33"/><polygon class="cls-6" points="51.69 62.33 34.37 72.33 51.69 82.33 51.69 62.33"/><polygon class="cls-6" points="34.37 52.33 34.37 72.33 51.69 62.33 34.37 52.33"/><polygon class="cls-6" points="34.37 72.33 17.05 82.33 34.37 92.33 34.37 72.33"/><polygon class="cls-6" points="17.05 82.33 17.05 102.33 34.37 92.33 17.05 82.33"/><polygon class="cls-6" points="17.05 82.33 34.37 72.33 17.05 62.33 17.05 82.33"/><polygon class="cls-6" points="34.37 52.33 17.05 42.33 17.05 62.33 34.37 52.33"/><polygon class="cls-6" points="34.37 72.33 34.37 52.33 17.05 62.33 34.37 72.33"/><polygon class="cls-6" points="69.01 72.33 51.69 82.33 69.01 92.33 69.01 72.33"/><polygon class="cls-6" points="51.69 82.33 51.69 102.33 69.01 92.33 51.69 82.33"/><polygon class="cls-7" points="103.65 52.33 120.97 42.33 103.65 32.33 103.65 52.33"/><polygon class="cls-7" points="120.97 22.33 103.65 12.33 103.65 32.33 120.97 22.33"/><polygon class="cls-7" points="120.97 42.33 120.97 22.33 103.65 32.33 120.97 42.33"/><polygon class="cls-7" points="103.65 12.33 86.33 22.33 103.65 32.33 103.65 12.33"/><polygon class="cls-7" points="86.33 22.33 86.33 42.33 103.65 32.33 86.33 22.33"/><polygon class="cls-7" points="120.97 62.33 103.65 72.33 120.97 82.33 120.97 62.33"/><polygon class="cls-7" points="103.65 52.33 103.65 72.33 120.97 62.33 103.65 52.33"/><polygon class="cls-7" points="120.97 82.33 103.65 72.33 103.65 92.33 120.97 82.33"/><polygon class="cls-7" points="103.65 72.33 86.33 82.33 103.65 92.33 103.65 72.33"/><polygon class="cls-7" points="86.33 82.33 86.33 102.33 103.65 92.33 86.33 82.33"/><polygon class="cls-7" points="103.65 52.33 86.33 42.33 86.33 62.33 103.65 52.33"/><polygon class="cls-7" points="103.65 72.33 103.65 52.33 86.33 62.33 103.65 72.33"/><polygon class="cls-7" points="86.33 42.33 69.01 52.33 86.33 62.33 86.33 42.33"/><polygon class="cls-7" points="86.33 62.33 69.01 72.33 86.33 82.33 86.33 62.33"/><polygon class="cls-7" points="69.01 52.33 86.33 42.33 69.01 32.33 69.01 52.33"/><polygon class="cls-7" points="86.33 42.33 86.33 22.33 69.01 32.33 86.33 42.33"/><polygon class="cls-7" points="86.33 82.33 69.01 72.33 69.01 92.33 86.33 82.33"/><polygon class="cls-7" points="86.33 102.33 86.33 82.33 69.01 92.33 86.33 102.33"/><line class="cls-1" x1="137.35" y1="9.45" x2="137.35" y2="105.78"/><text class="cls-2" transform="translate(151.47 52.78)"><tspan class="cls-3">K</tspan><tspan x="25.43" y="0">ODSPO</tspan><tspan class="cls-4" x="161.95" y="0">R</tspan><tspan class="cls-5" x="185.55" y="0">T</tspan><tspan x="0" y="43">SVERIGE</tspan></text><polygon class="cls-6" points="34.37 52.33 51.69 42.33 34.37 32.33 34.37 52.33"/><polygon class="cls-6" points="51.69 42.33 51.69 22.33 34.37 32.33 51.69 42.33"/><polygon class="cls-6" points="34.37 12.33 17.05 22.33 34.37 32.33 34.37 12.33"/><polygon class="cls-6" points="34.37 32.33 17.05 42.33 34.37 52.33 34.37 32.33"/><polygon class="cls-6" points="17.05 22.33 17.05 42.33 34.37 32.33 17.05 22.33"/><polygon class="cls-6" points="69.01 12.33 51.69 22.33 69.01 32.33 69.01 12.33"/><polygon class="cls-6" points="51.69 22.33 51.69 42.33 69.01 32.33 51.69 22.33"/><polygon class="cls-6" points="51.69 82.33 69.01 72.33 51.69 62.33 51.69 82.33"/><polygon class="cls-6" points="51.69 62.33 34.37 72.33 51.69 82.33 51.69 62.33"/><polygon class="cls-6" points="34.37 52.33 34.37 72.33 51.69 62.33 34.37 52.33"/><polygon class="cls-6" points="34.37 72.33 17.05 82.33 34.37 92.33 34.37 72.33"/><polygon class="cls-6" points="17.05 82.33 17.05 102.33 34.37 92.33 17.05 82.33"/><polygon class="cls-6" points="17.05 82.33 34.37 72.33 17.05 62.33 17.05 82.33"/><polygon class="cls-6" points="34.37 52.33 17.05 42.33 17.05 62.33 34.37 52.33"/><polygon class="cls-6" points="34.37 72.33 34.37 52.33 17.05 62.33 34.37 72.33"/><polygon class="cls-6" points="69.01 72.33 51.69 82.33 69.01 92.33 69.01 72.33"/><polygon class="cls-6" points="51.69 82.33 51.69 102.33 69.01 92.33 51.69 82.33"/><polygon class="cls-7" points="103.65 52.33 120.97 42.33 103.65 32.33 103.65 52.33"/><polygon class="cls-7" points="120.97 22.33 103.65 12.33 103.65 32.33 120.97 22.33"/><polygon class="cls-7" points="120.97 42.33 120.97 22.33 103.65 32.33 120.97 42.33"/><polygon class="cls-7" points="103.65 12.33 86.33 22.33 103.65 32.33 103.65 12.33"/><polygon class="cls-7" points="86.33 22.33 86.33 42.33 103.65 32.33 86.33 22.33"/><polygon class="cls-7" points="120.97 62.33 103.65 72.33 120.97 82.33 120.97 62.33"/><polygon class="cls-7" points="103.65 52.33 103.65 72.33 120.97 62.33 103.65 52.33"/><polygon class="cls-7" points="120.97 82.33 103.65 72.33 103.65 92.33 120.97 82.33"/><polygon class="cls-7" points="103.65 72.33 86.33 82.33 103.65 92.33 103.65 72.33"/><polygon class="cls-7" points="86.33 82.33 86.33 102.33 103.65 92.33 86.33 82.33"/><polygon class="cls-7" points="103.65 52.33 86.33 42.33 86.33 62.33 103.65 52.33"/><polygon class="cls-7" points="103.65 72.33 103.65 52.33 86.33 62.33 103.65 72.33"/><polygon class="cls-7" points="86.33 42.33 69.01 52.33 86.33 62.33 86.33 42.33"/><polygon class="cls-7" points="86.33 62.33 69.01 72.33 86.33 82.33 86.33 62.33"/><polygon class="cls-7" points="69.01 52.33 86.33 42.33 69.01 32.33 69.01 52.33"/><polygon class="cls-7" points="86.33 42.33 86.33 22.33 69.01 32.33 86.33 42.33"/><polygon class="cls-7" points="86.33 82.33 69.01 72.33 69.01 92.33 86.33 82.33"/><polygon class="cls-7" points="86.33 102.33 86.33 82.33 69.01 92.33 86.33 102.33"/></svg>